<?xml version="1.0" standalone="no"?>
<!DOCTYPE svg PUBLIC "-//W3C//DTD SVG 20010904//EN" "http://www.w3.org/TR/2001/REC-SVG-20010904/DTD/svg10.dtd">
<svg version="1.0" xmlns="http://www.w3.org/2000/svg" width="840.000000pt" height="646.000000pt"
    viewBox="0 0 840.000000 646.000000" preserveAspectRatio="xMidYMid meet">

    <g transform="translate(0.000000,646.000000) scale(0.100000,-0.100000)" fill="#fff" stroke="none">
        <path d="M7675 6050 c-66 -12 -131 -37 -180 -71 -37 -25 -794 -782 -3585
-3582 l-995 -998 -990 993 c-730 731 -1004 1000 -1041 1020 -183 99 -400 66
-545 -82 -141 -145 -170 -361 -71 -544 20 -37 333 -357 1201 -1229 1117 -1120
1178 -1179 1245 -1212 145 -71 313 -64 443 18 21 14 646 634 1388 1378 742
745 1839 1844 2437 2444 598 600 1101 1108 1119 1130 46 57 76 129 91 213 51
297 -222 573 -517 522z" />
    </g>
</svg>